<mxfile host="app.diagrams.net" modified="2024-02-23T15:36:16.975Z" agent="Mozilla/5.0 (Windows NT 10.0; Win64; x64) AppleWebKit/537.36 (KHTML, like Gecko) Chrome/121.0.0.0 Safari/537.36" etag="FEQupi0WumzCJi-kLKLB" version="23.1.6" type="github">
  <diagram id="R2lEEEUBdFMjLlhIrx00" name="Page-1">
    <mxGraphModel dx="2284" dy="780" grid="1" gridSize="10" guides="1" tooltips="1" connect="1" arrows="1" fold="1" page="1" pageScale="1" pageWidth="850" pageHeight="1100" math="0" shadow="0" extFonts="Permanent Marker^https://fonts.googleapis.com/css?family=Permanent+Marker">
      <root>
        <mxCell id="0" />
        <mxCell id="1" parent="0" />
        <mxCell id="aDHnRJIRXxL9vEQD1u_b-4" value="Model" style="ellipse;whiteSpace=wrap;html=1;fillColor=#dae8fc;strokeColor=#6c8ebf;" parent="1" vertex="1">
          <mxGeometry x="-620" y="140" width="100" height="40" as="geometry" />
        </mxCell>
        <mxCell id="aDHnRJIRXxL9vEQD1u_b-10" value="" style="endArrow=none;html=1;rounded=0;exitX=0.5;exitY=0;exitDx=0;exitDy=0;" parent="1" source="KuigTH3JkjAsRaGnuVRU-15" edge="1">
          <mxGeometry width="50" height="50" relative="1" as="geometry">
            <mxPoint x="-420" y="160" as="sourcePoint" />
            <mxPoint x="-420" y="120" as="targetPoint" />
          </mxGeometry>
        </mxCell>
        <mxCell id="aDHnRJIRXxL9vEQD1u_b-11" value="" style="endArrow=none;html=1;rounded=0;entryX=1;entryY=1;entryDx=0;entryDy=0;exitX=0.25;exitY=0;exitDx=0;exitDy=0;" parent="1" source="KuigTH3JkjAsRaGnuVRU-15" target="KuigTH3JkjAsRaGnuVRU-3" edge="1">
          <mxGeometry width="50" height="50" relative="1" as="geometry">
            <mxPoint x="-440" y="160" as="sourcePoint" />
            <mxPoint x="-509" y="104" as="targetPoint" />
          </mxGeometry>
        </mxCell>
        <mxCell id="aDHnRJIRXxL9vEQD1u_b-12" value="" style="endArrow=none;html=1;rounded=0;exitX=1;exitY=0.5;exitDx=0;exitDy=0;entryX=0;entryY=0.25;entryDx=0;entryDy=0;" parent="1" source="aDHnRJIRXxL9vEQD1u_b-4" edge="1">
          <mxGeometry width="50" height="50" relative="1" as="geometry">
            <mxPoint x="-540" y="200" as="sourcePoint" />
            <mxPoint x="-460" y="180" as="targetPoint" />
          </mxGeometry>
        </mxCell>
        <mxCell id="aDHnRJIRXxL9vEQD1u_b-13" value="" style="endArrow=none;html=1;rounded=0;exitX=1;exitY=0.5;exitDx=0;exitDy=0;entryX=0;entryY=0.5;entryDx=0;entryDy=0;" parent="1" edge="1">
          <mxGeometry width="50" height="50" relative="1" as="geometry">
            <mxPoint x="-520" y="230" as="sourcePoint" />
            <mxPoint x="-460" y="200" as="targetPoint" />
          </mxGeometry>
        </mxCell>
        <mxCell id="aDHnRJIRXxL9vEQD1u_b-14" value="" style="endArrow=none;html=1;rounded=0;exitX=1;exitY=0.5;exitDx=0;exitDy=0;entryX=0.25;entryY=1;entryDx=0;entryDy=0;" parent="1" source="KuigTH3JkjAsRaGnuVRU-5" edge="1" target="KuigTH3JkjAsRaGnuVRU-15">
          <mxGeometry width="50" height="50" relative="1" as="geometry">
            <mxPoint x="-500" y="285" as="sourcePoint" />
            <mxPoint x="-460" y="240" as="targetPoint" />
          </mxGeometry>
        </mxCell>
        <mxCell id="aDHnRJIRXxL9vEQD1u_b-15" value="" style="endArrow=none;html=1;rounded=0;exitX=1;exitY=0;exitDx=0;exitDy=0;entryX=0.5;entryY=1;entryDx=0;entryDy=0;" parent="1" target="KuigTH3JkjAsRaGnuVRU-15" edge="1">
          <mxGeometry width="50" height="50" relative="1" as="geometry">
            <mxPoint x="-493.2647091551578" y="325.82040196294304" as="sourcePoint" />
            <mxPoint x="-440" y="240" as="targetPoint" />
          </mxGeometry>
        </mxCell>
        <mxCell id="aDHnRJIRXxL9vEQD1u_b-16" value="" style="endArrow=none;html=1;rounded=0;entryX=0.75;entryY=1;entryDx=0;entryDy=0;exitX=0.5;exitY=0;exitDx=0;exitDy=0;" parent="1" target="KuigTH3JkjAsRaGnuVRU-15" edge="1">
          <mxGeometry width="50" height="50" relative="1" as="geometry">
            <mxPoint x="-395" y="290" as="sourcePoint" />
            <mxPoint x="-400" y="240" as="targetPoint" />
          </mxGeometry>
        </mxCell>
        <mxCell id="aDHnRJIRXxL9vEQD1u_b-24" value="" style="endArrow=none;html=1;rounded=0;exitX=0.5;exitY=0;exitDx=0;exitDy=0;" parent="1" edge="1">
          <mxGeometry width="50" height="50" relative="1" as="geometry">
            <mxPoint x="230" y="120" as="sourcePoint" />
            <mxPoint x="240" y="90" as="targetPoint" />
          </mxGeometry>
        </mxCell>
        <mxCell id="aDHnRJIRXxL9vEQD1u_b-25" value="" style="endArrow=none;html=1;rounded=0;exitX=1;exitY=0;exitDx=0;exitDy=0;fillColor=#dae8fc;strokeColor=#000000;" parent="1" edge="1">
          <mxGeometry width="50" height="50" relative="1" as="geometry">
            <mxPoint x="270" y="120" as="sourcePoint" />
            <mxPoint x="300" y="110" as="targetPoint" />
          </mxGeometry>
        </mxCell>
        <mxCell id="aDHnRJIRXxL9vEQD1u_b-26" value="" style="endArrow=none;html=1;rounded=0;exitX=1;exitY=0.5;exitDx=0;exitDy=0;entryX=0;entryY=0.5;entryDx=0;entryDy=0;fillColor=#dae8fc;strokeColor=#000000;" parent="1" edge="1">
          <mxGeometry width="50" height="50" relative="1" as="geometry">
            <mxPoint x="270" y="160" as="sourcePoint" />
            <mxPoint x="300" y="185" as="targetPoint" />
          </mxGeometry>
        </mxCell>
        <mxCell id="aDHnRJIRXxL9vEQD1u_b-30" value="Email" style="ellipse;whiteSpace=wrap;html=1;fillColor=#dae8fc;strokeColor=#6c8ebf;" parent="1" vertex="1">
          <mxGeometry x="10" y="480" width="90" height="40" as="geometry" />
        </mxCell>
        <mxCell id="aDHnRJIRXxL9vEQD1u_b-31" value="Status" style="ellipse;whiteSpace=wrap;html=1;fillColor=#dae8fc;strokeColor=#6c8ebf;" parent="1" vertex="1">
          <mxGeometry x="240" y="675" width="100" height="30" as="geometry" />
        </mxCell>
        <mxCell id="aDHnRJIRXxL9vEQD1u_b-32" value="Phone" style="ellipse;whiteSpace=wrap;html=1;fillColor=#dae8fc;strokeColor=#6c8ebf;" parent="1" vertex="1">
          <mxGeometry x="410" y="550" width="80" height="50" as="geometry" />
        </mxCell>
        <mxCell id="aDHnRJIRXxL9vEQD1u_b-33" value="Name" style="ellipse;whiteSpace=wrap;html=1;fillColor=#dae8fc;strokeColor=#6c8ebf;" parent="1" vertex="1">
          <mxGeometry x="85" y="430" width="70" height="40" as="geometry" />
        </mxCell>
        <mxCell id="aDHnRJIRXxL9vEQD1u_b-34" value="Start_Date" style="ellipse;whiteSpace=wrap;html=1;fillColor=#dae8fc;strokeColor=#6c8ebf;" parent="1" vertex="1">
          <mxGeometry x="20" y="600" width="80" height="40" as="geometry" />
        </mxCell>
        <mxCell id="aDHnRJIRXxL9vEQD1u_b-35" value="Job Title" style="ellipse;whiteSpace=wrap;html=1;fillColor=#dae8fc;strokeColor=#6c8ebf;" parent="1" vertex="1">
          <mxGeometry x="100" y="650" width="90" height="50" as="geometry" />
        </mxCell>
        <mxCell id="aDHnRJIRXxL9vEQD1u_b-36" value="Termination_Date" style="ellipse;whiteSpace=wrap;html=1;fillColor=#dae8fc;strokeColor=#6c8ebf;" parent="1" vertex="1">
          <mxGeometry x="350" y="655" width="120" height="40" as="geometry" />
        </mxCell>
        <mxCell id="aDHnRJIRXxL9vEQD1u_b-39" value="" style="endArrow=none;html=1;rounded=0;exitX=1;exitY=0.75;exitDx=0;exitDy=0;entryX=0.5;entryY=1;entryDx=0;entryDy=0;" parent="1" edge="1">
          <mxGeometry width="50" height="50" relative="1" as="geometry">
            <mxPoint x="270" y="560" as="sourcePoint" />
            <mxPoint x="350" y="470" as="targetPoint" />
          </mxGeometry>
        </mxCell>
        <mxCell id="aDHnRJIRXxL9vEQD1u_b-40" value="" style="endArrow=none;html=1;rounded=0;entryX=1;entryY=0.5;entryDx=0;entryDy=0;exitX=0.25;exitY=0;exitDx=0;exitDy=0;" parent="1" source="KuigTH3JkjAsRaGnuVRU-17" target="aDHnRJIRXxL9vEQD1u_b-33" edge="1">
          <mxGeometry width="50" height="50" relative="1" as="geometry">
            <mxPoint x="190" y="500" as="sourcePoint" />
            <mxPoint x="160" y="450" as="targetPoint" />
          </mxGeometry>
        </mxCell>
        <mxCell id="aDHnRJIRXxL9vEQD1u_b-41" value="" style="endArrow=none;html=1;rounded=0;entryX=1;entryY=0.5;entryDx=0;entryDy=0;exitX=0;exitY=0;exitDx=0;exitDy=0;" parent="1" source="KuigTH3JkjAsRaGnuVRU-17" target="aDHnRJIRXxL9vEQD1u_b-30" edge="1">
          <mxGeometry width="50" height="50" relative="1" as="geometry">
            <mxPoint x="190" y="520" as="sourcePoint" />
            <mxPoint x="100" y="500" as="targetPoint" />
          </mxGeometry>
        </mxCell>
        <mxCell id="aDHnRJIRXxL9vEQD1u_b-42" value="" style="endArrow=none;html=1;rounded=0;entryX=1;entryY=1;entryDx=0;entryDy=0;exitX=0;exitY=0.5;exitDx=0;exitDy=0;" parent="1" source="aDHnRJIRXxL9vEQD1u_b-32" target="KuigTH3JkjAsRaGnuVRU-17" edge="1">
          <mxGeometry width="50" height="50" relative="1" as="geometry">
            <mxPoint x="80" y="560" as="sourcePoint" />
            <mxPoint x="190" y="540" as="targetPoint" />
          </mxGeometry>
        </mxCell>
        <mxCell id="aDHnRJIRXxL9vEQD1u_b-44" value="" style="endArrow=none;html=1;rounded=0;exitX=1;exitY=0.5;exitDx=0;exitDy=0;entryX=0;entryY=1;entryDx=0;entryDy=0;" parent="1" source="aDHnRJIRXxL9vEQD1u_b-34" target="KuigTH3JkjAsRaGnuVRU-17" edge="1">
          <mxGeometry width="50" height="50" relative="1" as="geometry">
            <mxPoint x="130" y="610" as="sourcePoint" />
            <mxPoint x="190" y="560" as="targetPoint" />
          </mxGeometry>
        </mxCell>
        <mxCell id="aDHnRJIRXxL9vEQD1u_b-45" value="" style="endArrow=none;html=1;rounded=0;entryX=0.25;entryY=1;entryDx=0;entryDy=0;exitX=1;exitY=0;exitDx=0;exitDy=0;" parent="1" source="aDHnRJIRXxL9vEQD1u_b-35" target="KuigTH3JkjAsRaGnuVRU-17" edge="1">
          <mxGeometry width="50" height="50" relative="1" as="geometry">
            <mxPoint x="140" y="660" as="sourcePoint" />
            <mxPoint x="190" y="580" as="targetPoint" />
          </mxGeometry>
        </mxCell>
        <mxCell id="aDHnRJIRXxL9vEQD1u_b-46" value="" style="endArrow=none;html=1;rounded=0;entryX=0.5;entryY=1;entryDx=0;entryDy=0;exitX=0;exitY=0;exitDx=0;exitDy=0;" parent="1" edge="1" source="aDHnRJIRXxL9vEQD1u_b-31">
          <mxGeometry width="50" height="50" relative="1" as="geometry">
            <mxPoint x="210" y="670" as="sourcePoint" />
            <mxPoint x="230" y="580" as="targetPoint" />
          </mxGeometry>
        </mxCell>
        <mxCell id="aDHnRJIRXxL9vEQD1u_b-47" value="" style="endArrow=none;html=1;rounded=0;entryX=1;entryY=1;entryDx=0;entryDy=0;exitX=0;exitY=0;exitDx=0;exitDy=0;" parent="1" source="aDHnRJIRXxL9vEQD1u_b-36" edge="1">
          <mxGeometry width="50" height="50" relative="1" as="geometry">
            <mxPoint x="280" y="660" as="sourcePoint" />
            <mxPoint x="270" y="580" as="targetPoint" />
          </mxGeometry>
        </mxCell>
        <mxCell id="aDHnRJIRXxL9vEQD1u_b-51" value="" style="fontSize=12;html=1;endArrow=ERoneToMany;rounded=0;exitX=0.5;exitY=0;exitDx=0;exitDy=0;edgeStyle=orthogonalEdgeStyle;entryX=0.5;entryY=1;entryDx=0;entryDy=0;" parent="1" source="KuigTH3JkjAsRaGnuVRU-14" target="KuigTH3JkjAsRaGnuVRU-16" edge="1">
          <mxGeometry width="100" height="100" relative="1" as="geometry">
            <mxPoint x="230" y="310" as="sourcePoint" />
            <mxPoint x="230" y="200" as="targetPoint" />
          </mxGeometry>
        </mxCell>
        <mxCell id="aDHnRJIRXxL9vEQD1u_b-56" value="" style="endArrow=none;html=1;rounded=0;entryX=0.5;entryY=0;entryDx=0;entryDy=0;" parent="1" target="KuigTH3JkjAsRaGnuVRU-17" edge="1">
          <mxGeometry relative="1" as="geometry">
            <mxPoint x="230" y="390" as="sourcePoint" />
            <mxPoint x="230" y="500" as="targetPoint" />
          </mxGeometry>
        </mxCell>
        <mxCell id="aDHnRJIRXxL9vEQD1u_b-61" value="Drivers License" style="ellipse;whiteSpace=wrap;html=1;fillColor=#dae8fc;strokeColor=#6c8ebf;" parent="1" vertex="1">
          <mxGeometry x="-780" y="330" width="100" height="50" as="geometry" />
        </mxCell>
        <mxCell id="aDHnRJIRXxL9vEQD1u_b-71" value="" style="endArrow=none;html=1;rounded=0;entryX=0.5;entryY=0;entryDx=0;entryDy=0;exitX=1;exitY=1;exitDx=0;exitDy=0;" parent="1" source="aDHnRJIRXxL9vEQD1u_b-61" target="KuigTH3JkjAsRaGnuVRU-1" edge="1">
          <mxGeometry width="50" height="50" relative="1" as="geometry">
            <mxPoint x="-680" y="360" as="sourcePoint" />
            <mxPoint x="-660" y="430" as="targetPoint" />
          </mxGeometry>
        </mxCell>
        <mxCell id="aDHnRJIRXxL9vEQD1u_b-72" value="" style="endArrow=none;html=1;rounded=0;exitX=0.5;exitY=0;exitDx=0;exitDy=0;entryX=0.5;entryY=1;entryDx=0;entryDy=0;fillColor=#dae8fc;strokeColor=#000000;" parent="1" target="KuigTH3JkjAsRaGnuVRU-1" edge="1">
          <mxGeometry width="50" height="50" relative="1" as="geometry">
            <mxPoint x="-670" y="550" as="sourcePoint" />
            <mxPoint x="-640" y="510" as="targetPoint" />
          </mxGeometry>
        </mxCell>
        <mxCell id="KuigTH3JkjAsRaGnuVRU-1" value="Customer" style="whiteSpace=wrap;html=1;align=center;fillColor=#ffe6cc;strokeColor=#d79b00;" vertex="1" parent="1">
          <mxGeometry x="-710" y="440" width="100" height="40" as="geometry" />
        </mxCell>
        <mxCell id="KuigTH3JkjAsRaGnuVRU-2" value="VIN Number" style="ellipse;whiteSpace=wrap;html=1;align=center;fontStyle=4;fillColor=#dae8fc;strokeColor=#6c8ebf;" vertex="1" parent="1">
          <mxGeometry x="-470" y="80" width="100" height="40" as="geometry" />
        </mxCell>
        <mxCell id="KuigTH3JkjAsRaGnuVRU-3" value="Mileage" style="ellipse;whiteSpace=wrap;html=1;align=center;fillColor=#dae8fc;strokeColor=#6c8ebf;" vertex="1" parent="1">
          <mxGeometry x="-600" y="70" width="100" height="40" as="geometry" />
        </mxCell>
        <mxCell id="KuigTH3JkjAsRaGnuVRU-4" value="Make" style="ellipse;whiteSpace=wrap;html=1;align=center;fillColor=#dae8fc;strokeColor=#6c8ebf;" vertex="1" parent="1">
          <mxGeometry x="-620" y="210" width="100" height="40" as="geometry" />
        </mxCell>
        <mxCell id="KuigTH3JkjAsRaGnuVRU-5" value="Year" style="ellipse;whiteSpace=wrap;html=1;align=center;fillColor=#dae8fc;strokeColor=#6c8ebf;" vertex="1" parent="1">
          <mxGeometry x="-600" y="270" width="100" height="40" as="geometry" />
        </mxCell>
        <mxCell id="KuigTH3JkjAsRaGnuVRU-6" value="Status" style="ellipse;whiteSpace=wrap;html=1;align=center;fillColor=#dae8fc;strokeColor=#6c8ebf;" vertex="1" parent="1">
          <mxGeometry x="-580" y="320" width="100" height="40" as="geometry" />
        </mxCell>
        <mxCell id="KuigTH3JkjAsRaGnuVRU-7" value="Price" style="ellipse;whiteSpace=wrap;html=1;align=center;fillColor=#dae8fc;strokeColor=#6c8ebf;" vertex="1" parent="1">
          <mxGeometry x="-450" y="290" width="100" height="40" as="geometry" />
        </mxCell>
        <mxCell id="KuigTH3JkjAsRaGnuVRU-8" value="Office_Number" style="ellipse;whiteSpace=wrap;html=1;align=center;fontStyle=4;fillColor=#dae8fc;strokeColor=#6c8ebf;" vertex="1" parent="1">
          <mxGeometry x="190" y="50" width="100" height="40" as="geometry" />
        </mxCell>
        <mxCell id="KuigTH3JkjAsRaGnuVRU-9" value="Office Hours" style="ellipse;whiteSpace=wrap;html=1;align=center;fillColor=#dae8fc;strokeColor=#6c8ebf;" vertex="1" parent="1">
          <mxGeometry x="300" y="90" width="100" height="40" as="geometry" />
        </mxCell>
        <mxCell id="KuigTH3JkjAsRaGnuVRU-10" value="Office Address" style="ellipse;shape=doubleEllipse;margin=3;whiteSpace=wrap;html=1;align=center;fillColor=#dae8fc;strokeColor=#6c8ebf;" vertex="1" parent="1">
          <mxGeometry x="300" y="170" width="100" height="40" as="geometry" />
        </mxCell>
        <mxCell id="KuigTH3JkjAsRaGnuVRU-13" value="Employee_ID" style="ellipse;whiteSpace=wrap;html=1;align=center;fontStyle=4;fillColor=#dae8fc;strokeColor=#6c8ebf;" vertex="1" parent="1">
          <mxGeometry x="310" y="430" width="100" height="40" as="geometry" />
        </mxCell>
        <mxCell id="KuigTH3JkjAsRaGnuVRU-14" value="Belongs To" style="shape=rhombus;perimeter=rhombusPerimeter;whiteSpace=wrap;html=1;align=center;fillColor=#d5e8d4;strokeColor=#82b366;" vertex="1" parent="1">
          <mxGeometry x="170" y="330" width="120" height="60" as="geometry" />
        </mxCell>
        <mxCell id="KuigTH3JkjAsRaGnuVRU-15" value="Rental Cars" style="whiteSpace=wrap;html=1;align=center;fillColor=#ffe6cc;strokeColor=#d79b00;" vertex="1" parent="1">
          <mxGeometry x="-460" y="170" width="100" height="40" as="geometry" />
        </mxCell>
        <mxCell id="KuigTH3JkjAsRaGnuVRU-16" value="Rental Offices" style="whiteSpace=wrap;html=1;align=center;fillColor=#ffe6cc;strokeColor=#d79b00;" vertex="1" parent="1">
          <mxGeometry x="170" y="120" width="100" height="40" as="geometry" />
        </mxCell>
        <mxCell id="KuigTH3JkjAsRaGnuVRU-17" value="Employee" style="whiteSpace=wrap;html=1;align=center;fillColor=#ffe6cc;strokeColor=#d79b00;" vertex="1" parent="1">
          <mxGeometry x="190" y="540" width="100" height="40" as="geometry" />
        </mxCell>
        <mxCell id="KuigTH3JkjAsRaGnuVRU-19" value="Email" style="ellipse;whiteSpace=wrap;html=1;align=center;fillColor=#dae8fc;strokeColor=#6c8ebf;" vertex="1" parent="1">
          <mxGeometry x="-830" y="400" width="100" height="40" as="geometry" />
        </mxCell>
        <mxCell id="KuigTH3JkjAsRaGnuVRU-20" value="Name" style="ellipse;whiteSpace=wrap;html=1;align=center;fillColor=#dae8fc;strokeColor=#6c8ebf;" vertex="1" parent="1">
          <mxGeometry x="-840" y="450" width="100" height="40" as="geometry" />
        </mxCell>
        <mxCell id="KuigTH3JkjAsRaGnuVRU-21" value="Phone" style="ellipse;whiteSpace=wrap;html=1;align=center;fillColor=#dae8fc;strokeColor=#6c8ebf;" vertex="1" parent="1">
          <mxGeometry x="-810" y="505" width="100" height="40" as="geometry" />
        </mxCell>
        <mxCell id="KuigTH3JkjAsRaGnuVRU-22" value="Address" style="ellipse;shape=doubleEllipse;margin=3;whiteSpace=wrap;html=1;align=center;fillColor=#dae8fc;strokeColor=#6c8ebf;" vertex="1" parent="1">
          <mxGeometry x="-720" y="550" width="100" height="40" as="geometry" />
        </mxCell>
        <mxCell id="KuigTH3JkjAsRaGnuVRU-23" value="" style="endArrow=none;html=1;rounded=0;entryX=0;entryY=0;entryDx=0;entryDy=0;" edge="1" parent="1" target="KuigTH3JkjAsRaGnuVRU-1">
          <mxGeometry relative="1" as="geometry">
            <mxPoint x="-730" y="420" as="sourcePoint" />
            <mxPoint x="-570" y="420" as="targetPoint" />
          </mxGeometry>
        </mxCell>
        <mxCell id="KuigTH3JkjAsRaGnuVRU-24" value="" style="endArrow=none;html=1;rounded=0;entryX=0;entryY=0.75;entryDx=0;entryDy=0;exitX=1;exitY=0.5;exitDx=0;exitDy=0;" edge="1" parent="1" source="KuigTH3JkjAsRaGnuVRU-20" target="KuigTH3JkjAsRaGnuVRU-1">
          <mxGeometry relative="1" as="geometry">
            <mxPoint x="-720" y="470" as="sourcePoint" />
            <mxPoint x="-560" y="470" as="targetPoint" />
          </mxGeometry>
        </mxCell>
        <mxCell id="KuigTH3JkjAsRaGnuVRU-25" value="" style="endArrow=none;html=1;rounded=0;entryX=0.207;entryY=1.021;entryDx=0;entryDy=0;entryPerimeter=0;" edge="1" parent="1" source="KuigTH3JkjAsRaGnuVRU-21" target="KuigTH3JkjAsRaGnuVRU-1">
          <mxGeometry relative="1" as="geometry">
            <mxPoint x="-710" y="525" as="sourcePoint" />
            <mxPoint x="-550" y="525" as="targetPoint" />
          </mxGeometry>
        </mxCell>
        <mxCell id="KuigTH3JkjAsRaGnuVRU-26" value="Contract" style="whiteSpace=wrap;html=1;align=center;fillColor=#ffe6cc;strokeColor=#d79b00;" vertex="1" parent="1">
          <mxGeometry x="-640" y="780" width="100" height="40" as="geometry" />
        </mxCell>
        <mxCell id="KuigTH3JkjAsRaGnuVRU-27" value="Contract_Number" style="ellipse;whiteSpace=wrap;html=1;align=center;fontStyle=4;fillColor=#dae8fc;strokeColor=#6c8ebf;" vertex="1" parent="1">
          <mxGeometry x="-690" y="650" width="100" height="40" as="geometry" />
        </mxCell>
        <mxCell id="KuigTH3JkjAsRaGnuVRU-28" value="Contract Date" style="ellipse;whiteSpace=wrap;html=1;align=center;fillColor=#dae8fc;strokeColor=#6c8ebf;" vertex="1" parent="1">
          <mxGeometry x="-810" y="720" width="100" height="40" as="geometry" />
        </mxCell>
        <mxCell id="KuigTH3JkjAsRaGnuVRU-29" value="Rental Price" style="ellipse;whiteSpace=wrap;html=1;align=center;fillColor=#dae8fc;strokeColor=#6c8ebf;" vertex="1" parent="1">
          <mxGeometry x="-820" y="770" width="100" height="40" as="geometry" />
        </mxCell>
        <mxCell id="KuigTH3JkjAsRaGnuVRU-30" value="Paid" style="ellipse;whiteSpace=wrap;html=1;align=center;fillColor=#dae8fc;strokeColor=#6c8ebf;" vertex="1" parent="1">
          <mxGeometry x="-820" y="830" width="100" height="40" as="geometry" />
        </mxCell>
        <mxCell id="KuigTH3JkjAsRaGnuVRU-32" value="Extra Charge" style="ellipse;whiteSpace=wrap;html=1;align=center;fillColor=#dae8fc;strokeColor=#6c8ebf;" vertex="1" parent="1">
          <mxGeometry x="-670" y="900" width="100" height="40" as="geometry" />
        </mxCell>
        <mxCell id="KuigTH3JkjAsRaGnuVRU-33" value="Comments" style="ellipse;whiteSpace=wrap;html=1;align=center;fillColor=#dae8fc;strokeColor=#6c8ebf;" vertex="1" parent="1">
          <mxGeometry x="-800" y="670" width="100" height="40" as="geometry" />
        </mxCell>
        <mxCell id="KuigTH3JkjAsRaGnuVRU-34" value="Pickup Date/TIme" style="ellipse;whiteSpace=wrap;html=1;align=center;fillColor=#dae8fc;strokeColor=#6c8ebf;" vertex="1" parent="1">
          <mxGeometry x="-560" y="900" width="100" height="40" as="geometry" />
        </mxCell>
        <mxCell id="KuigTH3JkjAsRaGnuVRU-35" value="EZRental Insurance" style="ellipse;whiteSpace=wrap;html=1;align=center;fillColor=#dae8fc;strokeColor=#6c8ebf;" vertex="1" parent="1">
          <mxGeometry x="-440" y="720" width="100" height="40" as="geometry" />
        </mxCell>
        <mxCell id="KuigTH3JkjAsRaGnuVRU-36" value="Drivers car insurance" style="ellipse;whiteSpace=wrap;html=1;align=center;fillColor=#dae8fc;strokeColor=#6c8ebf;" vertex="1" parent="1">
          <mxGeometry x="-420" y="830" width="100" height="40" as="geometry" />
        </mxCell>
        <mxCell id="KuigTH3JkjAsRaGnuVRU-37" value="Additional Drivers" style="ellipse;whiteSpace=wrap;html=1;align=center;fillColor=#dae8fc;strokeColor=#6c8ebf;" vertex="1" parent="1">
          <mxGeometry x="-430" y="780" width="100" height="40" as="geometry" />
        </mxCell>
        <mxCell id="KuigTH3JkjAsRaGnuVRU-38" value="Drop Off Date/Time" style="ellipse;whiteSpace=wrap;html=1;align=center;fillColor=#dae8fc;strokeColor=#6c8ebf;" vertex="1" parent="1">
          <mxGeometry x="-450" y="890" width="100" height="40" as="geometry" />
        </mxCell>
        <mxCell id="KuigTH3JkjAsRaGnuVRU-40" value="Balance" style="ellipse;whiteSpace=wrap;html=1;align=center;dashed=1;fillColor=#dae8fc;strokeColor=#6c8ebf;" vertex="1" parent="1">
          <mxGeometry x="-780" y="890" width="100" height="40" as="geometry" />
        </mxCell>
        <mxCell id="KuigTH3JkjAsRaGnuVRU-44" value="" style="endArrow=none;html=1;rounded=0;entryX=0.25;entryY=0;entryDx=0;entryDy=0;exitX=1;exitY=1;exitDx=0;exitDy=0;" edge="1" parent="1" source="KuigTH3JkjAsRaGnuVRU-33" target="KuigTH3JkjAsRaGnuVRU-26">
          <mxGeometry relative="1" as="geometry">
            <mxPoint x="-660" y="700" as="sourcePoint" />
            <mxPoint x="-500" y="700" as="targetPoint" />
          </mxGeometry>
        </mxCell>
        <mxCell id="KuigTH3JkjAsRaGnuVRU-45" value="" style="endArrow=none;html=1;rounded=0;entryX=0.5;entryY=0;entryDx=0;entryDy=0;exitX=0.5;exitY=1;exitDx=0;exitDy=0;" edge="1" parent="1" source="KuigTH3JkjAsRaGnuVRU-27" target="KuigTH3JkjAsRaGnuVRU-26">
          <mxGeometry relative="1" as="geometry">
            <mxPoint x="-600" y="690" as="sourcePoint" />
            <mxPoint x="-440" y="690" as="targetPoint" />
          </mxGeometry>
        </mxCell>
        <mxCell id="KuigTH3JkjAsRaGnuVRU-47" value="" style="endArrow=none;html=1;rounded=0;entryX=0;entryY=0;entryDx=0;entryDy=0;exitX=1;exitY=0.5;exitDx=0;exitDy=0;" edge="1" parent="1" source="KuigTH3JkjAsRaGnuVRU-28" target="KuigTH3JkjAsRaGnuVRU-26">
          <mxGeometry relative="1" as="geometry">
            <mxPoint x="-690" y="750" as="sourcePoint" />
            <mxPoint x="-530" y="750" as="targetPoint" />
          </mxGeometry>
        </mxCell>
        <mxCell id="KuigTH3JkjAsRaGnuVRU-48" value="" style="endArrow=none;html=1;rounded=0;entryX=0;entryY=0.25;entryDx=0;entryDy=0;exitX=1;exitY=0.5;exitDx=0;exitDy=0;" edge="1" parent="1" source="KuigTH3JkjAsRaGnuVRU-29" target="KuigTH3JkjAsRaGnuVRU-26">
          <mxGeometry relative="1" as="geometry">
            <mxPoint x="-720" y="790" as="sourcePoint" />
            <mxPoint x="-560" y="790" as="targetPoint" />
          </mxGeometry>
        </mxCell>
        <mxCell id="KuigTH3JkjAsRaGnuVRU-51" value="" style="endArrow=none;html=1;rounded=0;exitX=1;exitY=0;exitDx=0;exitDy=0;entryX=0;entryY=0.75;entryDx=0;entryDy=0;" edge="1" parent="1" source="KuigTH3JkjAsRaGnuVRU-30" target="KuigTH3JkjAsRaGnuVRU-26">
          <mxGeometry relative="1" as="geometry">
            <mxPoint x="-710" y="820" as="sourcePoint" />
            <mxPoint x="-640" y="830" as="targetPoint" />
          </mxGeometry>
        </mxCell>
        <mxCell id="KuigTH3JkjAsRaGnuVRU-52" value="" style="endArrow=none;html=1;rounded=0;exitX=0.5;exitY=0;exitDx=0;exitDy=0;entryX=0;entryY=1;entryDx=0;entryDy=0;" edge="1" parent="1" source="KuigTH3JkjAsRaGnuVRU-40" target="KuigTH3JkjAsRaGnuVRU-26">
          <mxGeometry relative="1" as="geometry">
            <mxPoint x="-650" y="870" as="sourcePoint" />
            <mxPoint x="-490" y="870" as="targetPoint" />
          </mxGeometry>
        </mxCell>
        <mxCell id="KuigTH3JkjAsRaGnuVRU-53" value="" style="endArrow=none;html=1;rounded=0;exitX=0.5;exitY=0;exitDx=0;exitDy=0;entryX=0.25;entryY=1;entryDx=0;entryDy=0;" edge="1" parent="1" source="KuigTH3JkjAsRaGnuVRU-32" target="KuigTH3JkjAsRaGnuVRU-26">
          <mxGeometry relative="1" as="geometry">
            <mxPoint x="-610" y="850" as="sourcePoint" />
            <mxPoint x="-450" y="850" as="targetPoint" />
          </mxGeometry>
        </mxCell>
        <mxCell id="KuigTH3JkjAsRaGnuVRU-54" value="" style="endArrow=none;html=1;rounded=0;exitX=0;exitY=0;exitDx=0;exitDy=0;entryX=0.5;entryY=1;entryDx=0;entryDy=0;" edge="1" parent="1" source="KuigTH3JkjAsRaGnuVRU-34" target="KuigTH3JkjAsRaGnuVRU-26">
          <mxGeometry relative="1" as="geometry">
            <mxPoint x="-530" y="830" as="sourcePoint" />
            <mxPoint x="-370" y="830" as="targetPoint" />
          </mxGeometry>
        </mxCell>
        <mxCell id="KuigTH3JkjAsRaGnuVRU-55" value="" style="endArrow=none;html=1;rounded=0;entryX=0;entryY=0;entryDx=0;entryDy=0;exitX=0.75;exitY=1;exitDx=0;exitDy=0;" edge="1" parent="1" source="KuigTH3JkjAsRaGnuVRU-26" target="KuigTH3JkjAsRaGnuVRU-38">
          <mxGeometry relative="1" as="geometry">
            <mxPoint x="-550" y="790" as="sourcePoint" />
            <mxPoint x="-390" y="790" as="targetPoint" />
          </mxGeometry>
        </mxCell>
        <mxCell id="KuigTH3JkjAsRaGnuVRU-56" value="" style="endArrow=none;html=1;rounded=0;entryX=0;entryY=0.5;entryDx=0;entryDy=0;exitX=1;exitY=1;exitDx=0;exitDy=0;" edge="1" parent="1" source="KuigTH3JkjAsRaGnuVRU-26" target="KuigTH3JkjAsRaGnuVRU-36">
          <mxGeometry relative="1" as="geometry">
            <mxPoint x="-580" y="740" as="sourcePoint" />
            <mxPoint x="-420" y="740" as="targetPoint" />
          </mxGeometry>
        </mxCell>
        <mxCell id="KuigTH3JkjAsRaGnuVRU-57" value="" style="endArrow=none;html=1;rounded=0;entryX=0;entryY=0.5;entryDx=0;entryDy=0;exitX=1;exitY=0.5;exitDx=0;exitDy=0;" edge="1" parent="1" source="KuigTH3JkjAsRaGnuVRU-26" target="KuigTH3JkjAsRaGnuVRU-37">
          <mxGeometry relative="1" as="geometry">
            <mxPoint x="-610" y="750" as="sourcePoint" />
            <mxPoint x="-450" y="750" as="targetPoint" />
          </mxGeometry>
        </mxCell>
        <mxCell id="KuigTH3JkjAsRaGnuVRU-58" value="" style="endArrow=none;html=1;rounded=0;entryX=0;entryY=0.5;entryDx=0;entryDy=0;exitX=1;exitY=0;exitDx=0;exitDy=0;" edge="1" parent="1" source="KuigTH3JkjAsRaGnuVRU-26" target="KuigTH3JkjAsRaGnuVRU-35">
          <mxGeometry relative="1" as="geometry">
            <mxPoint x="-680" y="710" as="sourcePoint" />
            <mxPoint x="-520" y="710" as="targetPoint" />
          </mxGeometry>
        </mxCell>
        <mxCell id="KuigTH3JkjAsRaGnuVRU-59" value="Contracts" style="shape=rhombus;perimeter=rhombusPerimeter;whiteSpace=wrap;html=1;align=center;fillColor=#d5e8d4;strokeColor=#82b366;" vertex="1" parent="1">
          <mxGeometry x="-550" y="430" width="120" height="60" as="geometry" />
        </mxCell>
        <mxCell id="KuigTH3JkjAsRaGnuVRU-64" value="" style="endArrow=none;html=1;rounded=0;exitX=0.75;exitY=0;exitDx=0;exitDy=0;entryX=0.5;entryY=1;entryDx=0;entryDy=0;edgeStyle=orthogonalEdgeStyle;" edge="1" parent="1" source="KuigTH3JkjAsRaGnuVRU-26" target="KuigTH3JkjAsRaGnuVRU-59">
          <mxGeometry relative="1" as="geometry">
            <mxPoint x="-610" y="460" as="sourcePoint" />
            <mxPoint x="-480" y="580" as="targetPoint" />
          </mxGeometry>
        </mxCell>
        <mxCell id="KuigTH3JkjAsRaGnuVRU-65" value="" style="fontSize=12;html=1;endArrow=ERoneToMany;rounded=0;exitX=0;exitY=0.5;exitDx=0;exitDy=0;entryX=1;entryY=0.5;entryDx=0;entryDy=0;edgeStyle=orthogonalEdgeStyle;" edge="1" parent="1" source="KuigTH3JkjAsRaGnuVRU-59" target="KuigTH3JkjAsRaGnuVRU-1">
          <mxGeometry width="100" height="100" relative="1" as="geometry">
            <mxPoint x="-510" y="520" as="sourcePoint" />
            <mxPoint x="-610" y="540" as="targetPoint" />
          </mxGeometry>
        </mxCell>
        <mxCell id="KuigTH3JkjAsRaGnuVRU-66" value="" style="fontSize=12;html=1;endArrow=ERoneToMany;rounded=0;elbow=vertical;edgeStyle=orthogonalEdgeStyle;entryX=0;entryY=0.5;entryDx=0;entryDy=0;exitX=1;exitY=0.5;exitDx=0;exitDy=0;" edge="1" parent="1" source="KuigTH3JkjAsRaGnuVRU-59" target="KuigTH3JkjAsRaGnuVRU-17">
          <mxGeometry width="100" height="100" relative="1" as="geometry">
            <mxPoint x="-180" y="460" as="sourcePoint" />
            <mxPoint x="-160" y="610" as="targetPoint" />
          </mxGeometry>
        </mxCell>
        <mxCell id="KuigTH3JkjAsRaGnuVRU-67" value="Dropped Off" style="shape=rhombus;perimeter=rhombusPerimeter;whiteSpace=wrap;html=1;align=center;fillColor=#d5e8d4;strokeColor=#82b366;" vertex="1" parent="1">
          <mxGeometry x="-150" y="110" width="120" height="60" as="geometry" />
        </mxCell>
        <mxCell id="KuigTH3JkjAsRaGnuVRU-68" value="" style="fontSize=12;html=1;endArrow=ERzeroToMany;endFill=1;rounded=0;entryX=0;entryY=0.5;entryDx=0;entryDy=0;exitX=1;exitY=0.5;exitDx=0;exitDy=0;edgeStyle=orthogonalEdgeStyle;" edge="1" parent="1" source="KuigTH3JkjAsRaGnuVRU-67" target="KuigTH3JkjAsRaGnuVRU-16">
          <mxGeometry width="100" height="100" relative="1" as="geometry">
            <mxPoint x="-30" y="150" as="sourcePoint" />
            <mxPoint x="70" y="50" as="targetPoint" />
          </mxGeometry>
        </mxCell>
        <mxCell id="KuigTH3JkjAsRaGnuVRU-69" value="" style="endArrow=none;html=1;rounded=0;entryX=0;entryY=0.5;entryDx=0;entryDy=0;exitX=1;exitY=0.75;exitDx=0;exitDy=0;edgeStyle=orthogonalEdgeStyle;" edge="1" parent="1" source="KuigTH3JkjAsRaGnuVRU-15" target="KuigTH3JkjAsRaGnuVRU-67">
          <mxGeometry relative="1" as="geometry">
            <mxPoint x="-360" y="190" as="sourcePoint" />
            <mxPoint x="-200" y="190" as="targetPoint" />
          </mxGeometry>
        </mxCell>
      </root>
    </mxGraphModel>
  </diagram>
</mxfile>
